<svg width="500" height="89" viewBox="0 0 500 89" fill="none" xmlns="http://www.w3.org/2000/svg">
<mask id="mask0_513_2454" style="mask-type:alpha" maskUnits="userSpaceOnUse" x="0" y="8" width="500" height="74">
<path d="M64.1588 79.0603H54.578L53.1273 71.2225C47.8047 77.7036 41.3236 80.7041 32.4212 80.7041C13.2597 80.7093 0 66.0981 0 44.9014C0 23.7048 13.9328 8.71265 33.8666 8.71265C49.5424 8.71265 61.4453 18.2934 63.2821 32.8055H48.6709C47.2202 25.5468 41.7045 21.3879 33.6736 21.3879C22.1568 21.3879 15.1904 30.1963 15.1904 44.9014C15.1904 59.6066 22.1568 68.6081 34.1589 68.6081C43.6405 68.6081 50.2207 62.3201 50.6069 53.0263H35.2234V41.8018H64.1588V79.0551V79.0603Z" fill="white" fill-opacity="0.9"/>
<path d="M120.099 22.551H83.4247V37.5484H117.098V49.4513H83.4247V66.3846H120.777V79.0598H68.4274V10.1628H120.099V22.551Z" fill="white" fill-opacity="0.9"/>
<path d="M179.712 23.0363H159.006V79.065H143.816V23.0363H123.11V10.1628H179.718V23.0311L179.712 23.0363Z" fill="white" fill-opacity="0.9"/>
<path d="M195.994 10.1628H217.571L233.633 57.4822L249.314 10.1628H270.412V79.0598H256.187V30.0967L239.253 79.0598H227.543L210.417 30.582V79.0598H195.999V10.1628H195.994Z" fill="white" fill-opacity="0.9"/>
<path d="M312.68 52.5457V79.0598H297.776V52.2535L272.034 10.1628H289.26L305.322 37.7415L321.577 10.1628H338.317L312.674 52.5457H312.68Z" fill="white" fill-opacity="0.9"/>
<path d="M348.174 10.9355L348.153 23.8038L368.859 23.8404L368.802 54.8526C368.797 58.0305 371.484 60.5666 374.652 60.337C377.031 60.1648 379.406 59.9561 381.769 59.716C383.032 59.5856 383.987 58.5158 383.992 57.2478L384.05 23.8717L404.756 23.9082L404.777 11.0399L348.169 10.9408L348.174 10.9355ZM370.816 79.8743L381.895 79.8952C383.032 79.8952 383.956 78.9767 383.956 77.8391V73.6071C378.936 74.4734 373.942 72.1564 368.839 72.6991L368.76 77.8131C368.76 78.9506 369.679 79.8743 370.816 79.8743Z" fill="white" fill-opacity="0.9"/>
<path d="M445.819 53.9809L452.091 53.9914C451.689 63.2799 445.099 69.5627 435.617 69.5418C429.846 69.5314 425.243 67.5067 422.023 63.7391C417.337 65.3776 412.594 66.8753 407.798 68.2164C413.481 76.6022 422.65 81.6117 433.848 81.6326C442.75 81.6483 449.237 78.6582 454.57 72.1823L456.005 80.0201L465.586 80.0358L465.648 43.3982C459.214 47.2337 452.587 50.7612 445.808 53.9705L445.819 53.9809ZM416.69 45.7987C416.716 31.0935 423.698 22.2955 435.215 22.3164C443.246 22.332 448.757 26.5014 450.192 33.7601L464.803 33.7862C462.992 19.2689 451.105 9.66727 435.429 9.64118C415.495 9.60465 401.536 24.482 401.5 45.7673C401.495 49.1384 401.823 52.3424 402.46 55.3533C402.606 56.0474 403.279 56.5066 403.979 56.3657C407.981 55.5673 411.957 54.6697 415.897 53.6678C416.701 53.4643 417.217 52.6816 417.097 51.8623C416.821 49.9733 416.68 47.9486 416.685 45.7934L416.69 45.7987Z" fill="white" fill-opacity="0.9"/>
<path d="M499.134 16.7852C499.849 16.7904 500.245 17.6096 499.833 18.1889C499.249 19.0081 497.897 20.7824 497.824 20.8659C494.02 25.7397 489.684 30.1335 484.925 33.9794C484.872 34.0211 484.82 34.0629 484.768 34.0994C483.714 34.9187 482.655 35.7327 481.585 36.5364C478.84 38.6132 476.054 40.6223 473.22 42.5739C457.539 53.3862 447.802 58.521 429.945 65.3621C411.519 72.4277 391.997 74.1967 372.032 76.5136C370.295 76.7171 368.771 75.3499 368.792 73.6018L368.839 72.6938C368.875 69.4011 371.432 66.6667 374.714 66.4475C395.473 65.0543 415.72 60.9631 435.012 54.4455C441.352 52.306 447.588 49.9056 453.709 47.2443C462.256 43.5445 463.373 43.1479 471.414 38.488C480.458 33.2488 485.953 30.1544 493.493 23.2819C485.379 27.3052 480.917 28.5941 472.411 31.7251C470.736 32.3409 468.868 31.412 468.383 29.6952C468.017 28.4115 467.689 27.1121 467.391 25.8076C467.052 24.3151 467.861 22.7914 469.285 22.2383C478.647 18.6116 488.755 16.6964 499.139 16.7904L499.134 16.7852Z" fill="white" fill-opacity="0.9"/>
</mask>
<g mask="url(#mask0_513_2454)">
<rect x="-31" y="-4" width="752" height="195" fill="#D9D9D9"/>
<rect x="-31" y="-4" width="752" height="195" fill="url(#paint0_linear_513_2454)"/>
</g>
<defs>
<linearGradient id="paint0_linear_513_2454" x1="-31" y1="-13.75" x2="745.182" y2="93.1354" gradientUnits="userSpaceOnUse">
<stop stop-color="white"/>
<stop offset="1" stop-color="#C3C5F6"/>
</linearGradient>
</defs>
</svg>
